# xmcd
#
# Track frame offsets:
#	150
#	23258
#	44141
#	64567
#	88220
#	109528
#	132370
#	152716
#	172782
#	195446
#	219740
#	241702
#	260843
#
# Disc length: 3747 seconds
#
# Revision: 0
# Processed by: cddbd v1.5PL3 Copyright (c) Steve Scherf et al.
# Submitted via: dBpowerAMP V4.0
#
DISCID=a90ea10d
DTITLE=Alejandro Saenz - Unpluged
DYEAR=2003
DGENRE=Ambient
TTITLE0=cancion 01
TTITLE1=Cancion 02
TTITLE2=CAncion 03
TTITLE3=Cancion 04
TTITLE4=Cancion 05
TTITLE5=Cancion 06
TTITLE6=Cancion 07
TTITLE7=Cancion 08
TTITLE8=Cancion 09
TTITLE9=Cancion 10
TTITLE10=Cancion 11
TTITLE11=Cancion 12
TTITLE12=Cancion 13
EXTD=
EXTT0=
EXTT1=
EXTT2=
EXTT3=
EXTT4=
EXTT5=
EXTT6=
EXTT7=
EXTT8=
EXTT9=
EXTT10=
EXTT11=
EXTT12=
PLAYORDER=
